<svg width="500" height="400" viewBox="0 0 500 400" xmlns="http://www.w3.org/2000/svg">
<title>Subtle spa and wellness background pattern</title>
<g opacity="1" fill="none" stroke="currentColor" stroke-width="1.5">
<path d="M-20 60 Q40 40 100 60 T220 60 T340 60 T460 60 T580 60"/>
<path d="M-20 110 Q40 90 100 110 T220 110 T340 110 T460 110 T580 110"/>
<path d="M-20 340 Q40 320 100 340 T220 340 T340 340 T460 340 T580 340"/>
<path d="M-20 380 Q40 360 100 380 T220 380 T340 380 T460 380 T580 380"/>
</g>
<g opacity="1" fill="currentColor">
<ellipse cx="420" cy="190" rx="10" ry="26" transform="rotate(20 420 190)"/>
<ellipse cx="440" cy="165" rx="10" ry="26" transform="rotate(-15 440 165)"/>
<ellipse cx="60" cy="230" rx="9" ry="24" transform="rotate(-25 60 230)"/>
<ellipse cx="80" cy="205" rx="9" ry="24" transform="rotate(12 80 205)"/>
</g>
<circle cx="250" cy="150" r="60" opacity="0.7" fill="none" stroke="currentColor" stroke-width="1.5"/>
<circle cx="250" cy="150" r="80" opacity="0.4" fill="none" stroke="currentColor" stroke-width="1.5"/>
</svg>
