<svg width="300" height="300" viewBox="0 0 300 300" xmlns="http://www.w3.org/2000/svg">
<title>Pop-art illustration of a golf ball with sunburst rays</title>
<defs>
<pattern id="halftone1" width="10" height="10" patternUnits="userSpaceOnUse">
<circle cx="5" cy="5" r="1.8" fill="#000" opacity="0.55"/>
</pattern>
<clipPath id="circleClip1">
<circle cx="150" cy="150" r="144"/>
</clipPath>
</defs>
<circle cx="150" cy="150" r="144" fill="#E8384F" stroke="#000" stroke-width="6"/>
<g clip-path="url(#circleClip1)">
<g stroke="#000" stroke-width="7" stroke-linecap="round">
<line x1="150" y1="150" x2="150" y2="30" transform="rotate(0 150 150)"/>
<line x1="150" y1="150" x2="150" y2="30" transform="rotate(30 150 150)"/>
<line x1="150" y1="150" x2="150" y2="30" transform="rotate(60 150 150)"/>
<line x1="150" y1="150" x2="150" y2="30" transform="rotate(90 150 150)"/>
<line x1="150" y1="150" x2="150" y2="30" transform="rotate(120 150 150)"/>
<line x1="150" y1="150" x2="150" y2="30" transform="rotate(150 150 150)"/>
<line x1="150" y1="150" x2="150" y2="30" transform="rotate(180 150 150)"/>
<line x1="150" y1="150" x2="150" y2="30" transform="rotate(210 150 150)"/>
<line x1="150" y1="150" x2="150" y2="30" transform="rotate(240 150 150)"/>
<line x1="150" y1="150" x2="150" y2="30" transform="rotate(270 150 150)"/>
<line x1="150" y1="150" x2="150" y2="30" transform="rotate(300 150 150)"/>
<line x1="150" y1="150" x2="150" y2="30" transform="rotate(330 150 150)"/>
</g>
<g stroke="#F5D033" stroke-width="4" stroke-linecap="round">
<line x1="150" y1="150" x2="150" y2="34" transform="rotate(15 150 150)"/>
<line x1="150" y1="150" x2="150" y2="34" transform="rotate(45 150 150)"/>
<line x1="150" y1="150" x2="150" y2="34" transform="rotate(75 150 150)"/>
<line x1="150" y1="150" x2="150" y2="34" transform="rotate(105 150 150)"/>
<line x1="150" y1="150" x2="150" y2="34" transform="rotate(135 150 150)"/>
<line x1="150" y1="150" x2="150" y2="34" transform="rotate(165 150 150)"/>
<line x1="150" y1="150" x2="150" y2="34" transform="rotate(195 150 150)"/>
<line x1="150" y1="150" x2="150" y2="34" transform="rotate(225 150 150)"/>
<line x1="150" y1="150" x2="150" y2="34" transform="rotate(255 150 150)"/>
<line x1="150" y1="150" x2="150" y2="34" transform="rotate(285 150 150)"/>
<line x1="150" y1="150" x2="150" y2="34" transform="rotate(315 150 150)"/>
<line x1="150" y1="150" x2="150" y2="34" transform="rotate(345 150 150)"/>
</g>
</g>
<circle cx="150" cy="205" r="46" fill="#FFFFFF" stroke="#000" stroke-width="6"/>
<path d="M104 205 A46 46 0 0 1 196 205" fill="url(#halftone1)" opacity="0.9"/>
<circle cx="134" cy="192" r="4" fill="#000"/>
<circle cx="150" cy="188" r="4" fill="#000"/>
<circle cx="166" cy="192" r="4" fill="#000"/>
<circle cx="142" cy="205" r="4" fill="#000"/>
<circle cx="158" cy="205" r="4" fill="#000"/>
<circle cx="134" cy="218" r="4" fill="#000"/>
<circle cx="150" cy="222" r="4" fill="#000"/>
<circle cx="166" cy="218" r="4" fill="#000"/>
</svg>
