<svg width="300" height="300" viewBox="0 0 300 300" xmlns="http://www.w3.org/2000/svg">
<title>Pop-art illustration of a golf ball with a price tag</title>
<defs>
<pattern id="halftone5" width="9" height="9" patternUnits="userSpaceOnUse">
<circle cx="4.5" cy="4.5" r="1.6" fill="#000" opacity="0.5"/>
</pattern>
</defs>
<circle cx="150" cy="150" r="144" fill="#2C6E8E" stroke="#000" stroke-width="6"/>
<circle cx="140" cy="150" r="58" fill="#FFFFFF" stroke="#000" stroke-width="6"/>
<path d="M84 168 A58 58 0 0 0 196 168" fill="url(#halftone5)"/>
<circle cx="120" cy="128" r="4.5" fill="#000"/>
<circle cx="150" cy="120" r="4.5" fill="#000"/>
<circle cx="160" cy="150" r="4.5" fill="#000"/>
<circle cx="130" cy="158" r="4.5" fill="#000"/>
<circle cx="105" cy="150" r="4.5" fill="#000"/>
<g transform="translate(178,90) rotate(30)">
<path d="M0 20 L60 20 L80 40 L60 60 L0 60 Z" fill="#F5D033" stroke="#000" stroke-width="6" stroke-linejoin="round"/>
<circle cx="18" cy="40" r="7" fill="#FFFFFF" stroke="#000" stroke-width="4"/>
<text x="52" y="48" text-anchor="middle" font-family="Arial Black, sans-serif" font-size="26" font-weight="900" fill="#E8384F">$</text>
</g>
<line x1="207" y1="107" x2="230" y2="82" stroke="#000" stroke-width="4"/>
<circle cx="233" cy="78" r="5" fill="#F5D033" stroke="#000" stroke-width="3"/>
</svg>
