<svg width="1600" height="400" viewBox="0 0 1600 400" xmlns="http://www.w3.org/2000/svg">
<title>Coastal illustration with Monterey Golf Tours wordmark</title>
<defs>
<linearGradient id="ab2Sky" x1="0" y1="0" x2="0" y2="1"><stop offset="0%" stop-color="#1F4F66"/><stop offset="55%" stop-color="#2C6E8E"/><stop offset="100%" stop-color="#5CA3B8"/></linearGradient>
<radialGradient id="ab2Glow" cx="50%" cy="50%" r="50%"><stop offset="0%" stop-color="#FFEFC4" stop-opacity="0.95"/><stop offset="100%" stop-color="#FFEFC4" stop-opacity="0"/></radialGradient>
<linearGradient id="ab2Ridge" x1="0" y1="0" x2="0" y2="1"><stop offset="0%" stop-color="#3A7A5C"/><stop offset="100%" stop-color="#255C42"/></linearGradient>
<linearGradient id="ab2Fair" x1="0" y1="0" x2="0" y2="1"><stop offset="0%" stop-color="#4F9C6E"/><stop offset="100%" stop-color="#2F7A4C"/></linearGradient>
</defs>
<rect x="0" y="0" width="1600" height="400" fill="url(#ab2Sky)"/>
<circle cx="1360" cy="80" r="150" fill="url(#ab2Glow)"/>
<circle cx="1360" cy="80" r="42" fill="#FFF6DE"/>
<path d="M0 170 Q260 138 520 165 T1040 152 T1600 160 L1600 240 L0 240 Z" fill="url(#ab2Ridge)"/>
<path d="M0 220 Q320 188 640 215 T1280 202 T1600 210 L1600 400 L0 400 Z" fill="url(#ab2Fair)"/>
<g opacity="0.9">
<path d="M100 250 Q97 214 106 184 Q109 173 116 180 Q121 189 115 200 Q111 209 113 224 Q116 238 110 250 Z" fill="#1B4A2C"/>
<ellipse cx="112" cy="178" rx="32" ry="38" fill="#1F5733"/>
</g>
<g opacity="0.85">
<path d="M1500 270 Q1497 232 1504 200 Q1507 189 1513 195 Q1517 203 1512 213 Q1509 220 1511 234 Q1513 247 1508 270 Z" fill="#1B4A2C"/>
<ellipse cx="1510" cy="192" rx="24" ry="30" fill="#1F5733"/>
</g>
<circle cx="1150" cy="300" r="5" fill="#FFFBF0"/>
<rect x="1148" y="284" width="2" height="16" fill="#7A6648"/>
<path d="M1150 284 L1166 288 L1150 292 Z" fill="#FFEFC4"/>
<rect x="200" y="130" width="1200" height="150" rx="10" fill="#0F2E3D" opacity="0.38"/>
<g text-anchor="middle">
<text x="800" y="200" font-family="Georgia, serif" font-size="72" font-weight="700" fill="#FAF6EE">MONTEREY</text>
<text x="800" y="265" font-family="Georgia, serif" font-size="64" font-weight="700" fill="#FAF6EE" letter-spacing="6">GOLF TOURS</text>
</g>
<line x1="640" y1="222" x2="960" y2="222" stroke="#E8A0A8" stroke-width="2" opacity="0.85"/>
</svg>
