<svg width="1600" height="400" viewBox="0 0 1600 400" xmlns="http://www.w3.org/2000/svg">
<title>Bold pop-art illustration for the blog page with golf and guide elements</title>
<defs>
<pattern id="bhDots" width="10" height="10" patternUnits="userSpaceOnUse">
<circle cx="5" cy="5" r="1.8" fill="#000" opacity="0.5"/>
</pattern>
</defs>
<rect width="1600" height="400" fill="#F5D033"/>
<g opacity="0.5">
<circle cx="120" cy="80" r="26" fill="#E8384F" stroke="#000" stroke-width="4"/>
<circle cx="1480" cy="90" r="22" fill="#2C6E8E" stroke="#000" stroke-width="4"/>
<circle cx="90" cy="320" r="18" fill="#2C6E8E" stroke="#000" stroke-width="4"/>
<circle cx="1510" cy="310" r="24" fill="#E8384F" stroke="#000" stroke-width="4"/>
<rect x="1420" y="180" width="34" height="34" fill="#2C6E8E" stroke="#000" stroke-width="4" transform="rotate(15 1437 197)"/>
<rect x="140" y="190" width="30" height="30" fill="#E8384F" stroke="#000" stroke-width="4" transform="rotate(-10 155 205)"/>
</g>
<g transform="translate(680,90)">
<rect x="0" y="0" width="120" height="150" rx="6" fill="#FFFFFF" stroke="#000" stroke-width="7"/>
<line x1="18" y1="35" x2="102" y2="35" stroke="#2C6E8E" stroke-width="6"/>
<line x1="18" y1="58" x2="102" y2="58" stroke="#2C6E8E" stroke-width="6"/>
<line x1="18" y1="81" x2="80" y2="81" stroke="#2C6E8E" stroke-width="6"/>
<line x1="18" y1="112" x2="102" y2="112" stroke="#E8384F" stroke-width="6"/>
<line x1="18" y1="130" x2="70" y2="130" stroke="#E8384F" stroke-width="6"/>
</g>
<g transform="translate(850,60)">
<path d="M0 170 Q-3 130 6 100 Q9 88 17 96 Q21 105 15 118 Q11 128 13 145 Q15 160 10 170 Z" fill="#2C6E8E" stroke="#000" stroke-width="6"/>
<circle cx="15" cy="90" r="52" fill="#FFFFFF" stroke="#000" stroke-width="7"/>
<path d="M-30 105 A52 52 0 0 0 60 105" fill="url(#bhDots)" opacity="0.85"/>
<circle cx="-2" cy="72" r="5" fill="#000"/>
<circle cx="20" cy="65" r="5" fill="#000"/>
<circle cx="38" cy="80" r="5" fill="#000"/>
<circle cx="6" cy="95" r="5" fill="#000"/>
<circle cx="30" cy="98" r="5" fill="#000"/>
</g>
<g transform="translate(1030,75) rotate(8)">
<rect x="0" y="60" width="9" height="140" fill="#FFFFFF" stroke="#000" stroke-width="5"/>
<path d="M9 60 L9 108 L75 84 Z" fill="#E8384F" stroke="#000" stroke-width="6" stroke-linejoin="round"/>
<path d="M9 60 L75 84 L9 108" fill="url(#bhDots)" opacity="0.5"/>
</g>
<g transform="translate(390,110)">
<circle cx="0" cy="0" r="46" fill="#FFFFFF" stroke="#000" stroke-width="7"/>
<path d="M-14 -20 Q-14 -40 0 -40 Q14 -40 14 -20 Q14 -8 6 0 L6 14 L-6 14 L-6 0 Q-14 -8 -14 -20 Z" fill="#F5D033" stroke="#000" stroke-width="5" stroke-linejoin="round"/>
<rect x="-8" y="16" width="16" height="8" fill="#000"/>
<line x1="-24" y1="-42" x2="-32" y2="-52" stroke="#000" stroke-width="5" stroke-linecap="round"/>
<line x1="24" y1="-42" x2="32" y2="-52" stroke="#000" stroke-width="5" stroke-linecap="round"/>
<line x1="0" y1="-52" x2="0" y2="-64" stroke="#000" stroke-width="5" stroke-linecap="round"/>
</g>
<path d="M0 340 Q400 310 800 335 T1600 325 L1600 400 L0 400 Z" fill="#2C6E8E" stroke="#000" stroke-width="6"/>
</svg>
