<svg width="1600" height="400" viewBox="0 0 1600 400" xmlns="http://www.w3.org/2000/svg">
<title>Clean painterly scene of a man playing golf on a beautiful course</title>
<defs>
<linearGradient id="gsky" x1="0" y1="0" x2="0" y2="1">
<stop offset="0%" stop-color="#7EC8E8"/>
<stop offset="55%" stop-color="#BFE3EE"/>
<stop offset="100%" stop-color="#EAF3E2"/>
</linearGradient>
<linearGradient id="ghillFar" x1="0" y1="0" x2="0" y2="1">
<stop offset="0%" stop-color="#A9CE93"/>
<stop offset="100%" stop-color="#8CBB74"/>
</linearGradient>
<linearGradient id="gfair" x1="0" y1="0" x2="0" y2="1">
<stop offset="0%" stop-color="#8FCB6F"/>
<stop offset="100%" stop-color="#6BAE4E"/>
</linearGradient>
</defs>
<rect width="1600" height="400" fill="url(#gsky)"/>
<circle cx="1300" cy="80" r="46" fill="#FFE9A8" opacity="0.9"/>
<circle cx="1300" cy="80" r="64" fill="#FFE9A8" opacity="0.3"/>
<g fill="#FFFFFF" opacity="0.85">
<ellipse cx="280" cy="70" rx="55" ry="18"/>
<ellipse cx="330" cy="60" rx="38" ry="14"/>
<ellipse cx="230" cy="62" rx="34" ry="12"/>
<ellipse cx="980" cy="50" rx="48" ry="15"/>
<ellipse cx="1030" cy="42" rx="32" ry="11"/>
</g>
<path d="M0 190 Q260 165 520 185 T1040 178 T1600 182 L1600 240 L0 240 Z" fill="url(#ghillFar)"/>
<g opacity="0.9">
<path d="M110 240 Q107 205 114 178 Q117 168 123 174 Q127 181 122 191 Q119 199 121 213 Q122 226 118 240 Z" fill="#4E7B45"/>
<ellipse cx="119" cy="172" rx="28" ry="34" fill="#5C8F52"/>
</g>
<g opacity="0.85">
<path d="M1480 250 Q1477 218 1483 194 Q1486 185 1491 190 Q1494 197 1490 206 Q1487 213 1489 225 Q1490 237 1486 250 Z" fill="#4E7B45"/>
<ellipse cx="1488" cy="188" rx="24" ry="29" fill="#5C8F52"/>
</g>
<path d="M0 225 Q300 195 600 220 T1200 208 T1600 216 L1600 400 L0 400 Z" fill="url(#gfair)"/>
<path d="M0 223 Q300 193 600 218 T1200 206 T1600 214" fill="none" stroke="#7EBE5F" stroke-width="2" opacity="0.5"/>
<g opacity="0.55" fill="#5C8F52">
<ellipse cx="150" cy="330" rx="3" ry="9"/>
<ellipse cx="300" cy="350" rx="3" ry="9"/>
<ellipse cx="1350" cy="340" rx="3" ry="9"/>
<ellipse cx="1480" cy="320" rx="3" ry="9"/>
</g>
<g transform="translate(1180,255)" opacity="0.95">
<ellipse cx="0" cy="88" rx="34" ry="9" fill="#3F6E38" opacity="0.4"/>
<circle cx="0" cy="80" r="5" fill="#FFFFFF"/>
<rect x="-1.5" y="18" width="3" height="62" fill="#8A7256"/>
<path d="M1.5 18 L1.5 45 L34 32 Z" fill="#E85D7A" stroke="#C94464" stroke-width="1.5"/>
</g>
<g transform="translate(660,180)">
<ellipse cx="6" cy="196" rx="46" ry="10" fill="#3F6E38" opacity="0.25"/>
<circle cx="-4" cy="16" r="15" fill="#F0C49A"/>
<path d="M-16 12 Q-8 0 4 6 Q14 0 18 12" fill="#5A3E2A"/>
<path d="M-8 30 Q-2 24 6 28 Q16 32 26 22 L44 -6" fill="none" stroke="#2C4A63" stroke-width="9" stroke-linecap="round"/>
<path d="M-8 30 Q-14 44 -10 62 L-6 100" fill="none" stroke="#2C4A63" stroke-width="11" stroke-linecap="round"/>
<path d="M6 28 Q10 46 4 66 L-2 100" fill="none" stroke="#3A5A78" stroke-width="11" stroke-linecap="round"/>
<path d="M-6 100 L-10 150" stroke="#243A28" stroke-width="12" stroke-linecap="round"/>
<path d="M-2 100 L6 150" stroke="#243A28" stroke-width="12" stroke-linecap="round"/>
<ellipse cx="-12" cy="156" rx="12" ry="6" fill="#1C1C1C"/>
<ellipse cx="8" cy="156" rx="12" ry="6" fill="#1C1C1C"/>
<line x1="44" y1="-6" x2="86" y2="-46" stroke="#8A7256" stroke-width="4" stroke-linecap="round"/>
<ellipse cx="90" cy="-49" rx="9" ry="5" fill="#D8D8D8" transform="rotate(-30 90 -49)"/>
</g>
<circle cx="762" cy="270" r="4" fill="#FFFFFF" opacity="0.9"/>
<circle cx="762" cy="270" r="4" fill="none" stroke="#DDD" stroke-width="0.6"/>
</svg>
