<svg width="680" height="320" viewBox="0 0 680 320" xmlns="http://www.w3.org/2000/svg">
<title>Painterly illustration of a coastal golf fairway at sunset</title>
<defs>
<linearGradient id="sky3" x1="0" y1="0" x2="0" y2="1">
<stop offset="0%" stop-color="#FFD9A0"/>
<stop offset="22%" stop-color="#FFB178"/>
<stop offset="48%" stop-color="#F4805F"/>
<stop offset="72%" stop-color="#D85B7A"/>
<stop offset="100%" stop-color="#9C4C8F"/>
</linearGradient>
<radialGradient id="sunGlow3" cx="50%" cy="50%" r="50%">
<stop offset="0%" stop-color="#FFF6E0" stop-opacity="1"/>
<stop offset="35%" stop-color="#FFD89A" stop-opacity="0.7"/>
<stop offset="100%" stop-color="#FF9F6B" stop-opacity="0"/>
</radialGradient>
<linearGradient id="seaFar3" x1="0" y1="0" x2="0" y2="1">
<stop offset="0%" stop-color="#F2A6B8"/>
<stop offset="100%" stop-color="#C2638F"/>
</linearGradient>
<linearGradient id="seaMid3" x1="0" y1="0" x2="0" y2="1">
<stop offset="0%" stop-color="#A85B95"/>
<stop offset="100%" stop-color="#6E4391"/>
</linearGradient>
<linearGradient id="seaNear3" x1="0" y1="0" x2="0" y2="1">
<stop offset="0%" stop-color="#4A3B8C"/>
<stop offset="100%" stop-color="#2E2E6B"/>
</linearGradient>
<linearGradient id="ridgeFar3" x1="0" y1="0" x2="0" y2="1">
<stop offset="0%" stop-color="#5C9A6E"/>
<stop offset="100%" stop-color="#357A52"/>
</linearGradient>
<linearGradient id="ridgeMid3" x1="0" y1="0" x2="0" y2="1">
<stop offset="0%" stop-color="#2D7A4C"/>
<stop offset="100%" stop-color="#1C5E38"/>
</linearGradient>
<linearGradient id="fairway3" x1="0" y1="0" x2="0" y2="1">
<stop offset="0%" stop-color="#9FDD6E"/>
<stop offset="50%" stop-color="#5FBE52"/>
<stop offset="100%" stop-color="#2E8F3E"/>
</linearGradient>
<radialGradient id="warmCast3" cx="78%" cy="22%" r="80%">
<stop offset="0%" stop-color="#FFC97A" stop-opacity="0.4"/>
<stop offset="100%" stop-color="#FFC97A" stop-opacity="0"/>
</radialGradient>
<radialGradient id="coolCast3" cx="15%" cy="90%" r="70%">
<stop offset="0%" stop-color="#3A2A6E" stop-opacity="0.28"/>
<stop offset="100%" stop-color="#3A2A6E" stop-opacity="0"/>
</radialGradient>
<filter id="grain3">
<feTurbulence type="fractalNoise" baseFrequency="0.85" numOctaves="2" stitchTiles="stitch" result="noise"/>
<feColorMatrix in="noise" type="matrix" values="0 0 0 0 0  0 0 0 0 0  0 0 0 0 0  0 0 0 0.05 0"/>
</filter>
</defs>
<rect x="0" y="0" width="680" height="320" fill="url(#sky3)"/>
<g opacity="0.7">
<ellipse cx="90" cy="36" rx="130" ry="13" fill="#FFE3B0" opacity="0.45"/>
<ellipse cx="290" cy="18" rx="170" ry="9" fill="#FFCFA0" opacity="0.35"/>
<ellipse cx="520" cy="50" rx="150" ry="11" fill="#FFB98E" opacity="0.4"/>
<ellipse cx="180" cy="70" rx="200" ry="8" fill="#FFA98C" opacity="0.25"/>
</g>
<circle cx="540" cy="86" r="115" fill="url(#sunGlow3)"/>
<circle cx="540" cy="86" r="42" fill="#FFF8E6"/>
<circle cx="540" cy="86" r="42" fill="none" stroke="#FFE0A8" stroke-width="2.5" opacity="0.7"/>
<path d="M0 122 Q90 105 180 116 T360 110 T540 118 T680 108 L680 158 L0 158 Z" fill="url(#seaFar3)"/>
<g opacity="0.55" stroke="#FFE7E0" stroke-width="1.5" fill="none">
<path d="M35 132 Q56 129 76 132"/>
<path d="M160 140 Q182 137 202 140"/>
<path d="M310 130 Q332 127 352 130"/>
<path d="M450 142 Q472 139 492 142"/>
<path d="M580 134 Q602 131 622 134"/>
</g>
<path d="M0 152 Q120 134 240 148 T480 142 T680 146 L680 192 L0 192 Z" fill="url(#seaMid3)"/>
<g opacity="0.5" stroke="#E8B8D8" stroke-width="1.3" fill="none">
<path d="M55 166 Q78 163 98 166"/>
<path d="M270 174 Q292 171 312 174"/>
<path d="M470 162 Q492 159 512 162"/>
<path d="M620 170 Q642 167 662 170"/>
</g>
<path d="M0 182 Q140 160 280 178 T560 170 T680 178 L680 222 L0 222 Z" fill="url(#seaNear3)"/>
<g opacity="0.45" stroke="#9C8FD0" stroke-width="1.2" fill="none">
<path d="M40 198 Q62 195 82 198"/>
<path d="M300 204 Q322 201 342 204"/>
<path d="M520 196 Q542 193 562 196"/>
</g>
<path d="M0 210 Q150 182 300 206 T580 196 T680 204 L680 254 L0 254 Z" fill="url(#ridgeFar3)"/>
<path d="M0 208 Q150 180 300 204 T580 194 T680 202" fill="none" stroke="#7FC494" stroke-width="2" opacity="0.5"/>
<path d="M0 240 Q160 208 320 238 T620 226 T680 233 L680 320 L0 320 Z" fill="url(#ridgeMid3)"/>
<path d="M0 238 Q160 206 320 236 T620 224 T680 231" fill="none" stroke="#4FA86C" stroke-width="2.5" opacity="0.5"/>
<g>
<path d="M75 262 Q72 215 80 176 Q83 162 91 170 Q95 179 90 190 Q86 200 88 216 Q90 232 86 262 Z" fill="#1B4A2C"/>
<ellipse cx="84" cy="166" rx="36" ry="42" fill="#1F5733"/>
<ellipse cx="68" cy="144" rx="22" ry="28" fill="#2C7044"/>
<ellipse cx="100" cy="156" rx="17" ry="22" fill="#256239"/>
<ellipse cx="84" cy="130" rx="14" ry="16" fill="#3A8A55"/>
<path d="M48 178 Q84 170 124 180" stroke="#123A22" stroke-width="2" fill="none" opacity="0.45"/>
</g>
<g opacity="0.95">
<path d="M618 286 Q615 248 621 216 Q624 205 631 212 Q634 219 629 228 Q625 236 627 250 Q629 265 625 286 Z" fill="#173F26"/>
<ellipse cx="624" cy="208" rx="28" ry="32" fill="#1D4F2E"/>
<ellipse cx="608" cy="188" rx="17" ry="22" fill="#2A6A3E"/>
<ellipse cx="638" cy="198" rx="14" ry="17" fill="#235C36"/>
</g>
<g opacity="0.88">
<path d="M462 308 Q460 280 466 260 Q469 253 473 258 Q475 264 472 270 Q470 276 472 287 Q473 298 470 308 Z" fill="#173F26"/>
<ellipse cx="468" cy="254" rx="18" ry="22" fill="#1D4F2E"/>
<ellipse cx="458" cy="240" rx="11" ry="14" fill="#2A6A3E"/>
</g>
<path d="M0 256 Q150 220 310 252 T620 238 T680 248 L680 320 L0 320 Z" fill="url(#fairway3)"/>
<path d="M0 254 Q150 218 310 250 T620 236 T680 246" fill="none" stroke="#7FE062" stroke-width="2" opacity="0.55"/>
<path d="M120 320 Q230 262 340 258 Q430 255 510 276 Q565 290 605 320 Z" fill="#C8F08A" opacity="0.6"/>
<path d="M180 320 Q260 276 350 273 Q420 271 480 290" fill="none" stroke="#4FAE3E" stroke-width="1.5" opacity="0.45"/>
<g opacity="0.85" stroke="#3E9E2E" stroke-width="1" fill="none">
<path d="M40 300 Q44 294 48 300"/>
<path d="M90 310 Q94 304 98 310"/>
<path d="M250 300 Q254 294 258 300"/>
<path d="M540 305 Q544 299 548 305"/>
<path d="M600 313 Q604 307 608 313"/>
<path d="M150 312 Q154 306 158 312"/>
</g>
<g opacity="0.5">
<circle cx="430" cy="195" r="3.5" fill="#FFE9C2"/>
<circle cx="446" cy="201" r="2.5" fill="#FFD9A8"/>
<circle cx="460" cy="192" r="3" fill="#FFE9C2"/>
</g>
<circle cx="372" cy="280" r="5" fill="#FFFBF0"/>
<circle cx="372" cy="280" r="5" fill="none" stroke="#E8CE94" stroke-width="0.9"/>
<rect x="371" y="266" width="1.6" height="14" fill="#6B5638"/>
<path d="M372.6 266 L386 270 L372.6 274 Z" fill="#E8466B"/>
<rect x="0" y="0" width="680" height="320" fill="url(#warmCast3)"/>
<rect x="0" y="0" width="680" height="320" fill="url(#coolCast3)"/>
<rect x="0" y="0" width="680" height="320" filter="url(#grain3)"/>
</svg>
