<svg width="1600" height="400" viewBox="0 0 1600 400" xmlns="http://www.w3.org/2000/svg">
<title>Painterly illustration of a coastal golf fairway at sunset</title>
<defs>
<linearGradient id="csky" x1="0" y1="0" x2="0" y2="1"><stop offset="0%" stop-color="#FFD9A0"/><stop offset="22%" stop-color="#FFB178"/><stop offset="48%" stop-color="#F4805F"/><stop offset="72%" stop-color="#D85B7A"/><stop offset="100%" stop-color="#9C4C8F"/></linearGradient>
<radialGradient id="csun" cx="50%" cy="50%" r="50%"><stop offset="0%" stop-color="#FFF6E0" stop-opacity="1"/><stop offset="35%" stop-color="#FFD89A" stop-opacity="0.7"/><stop offset="100%" stop-color="#FF9F6B" stop-opacity="0"/></radialGradient>
<linearGradient id="cseaF" x1="0" y1="0" x2="0" y2="1"><stop offset="0%" stop-color="#F2A6B8"/><stop offset="100%" stop-color="#C2638F"/></linearGradient>
<linearGradient id="cseaM" x1="0" y1="0" x2="0" y2="1"><stop offset="0%" stop-color="#A85B95"/><stop offset="100%" stop-color="#6E4391"/></linearGradient>
<linearGradient id="cseaN" x1="0" y1="0" x2="0" y2="1"><stop offset="0%" stop-color="#4A3B8C"/><stop offset="100%" stop-color="#2E2E6B"/></linearGradient>
<linearGradient id="cridgeF" x1="0" y1="0" x2="0" y2="1"><stop offset="0%" stop-color="#5C9A6E"/><stop offset="100%" stop-color="#357A52"/></linearGradient>
<linearGradient id="cridgeM" x1="0" y1="0" x2="0" y2="1"><stop offset="0%" stop-color="#2D7A4C"/><stop offset="100%" stop-color="#1C5E38"/></linearGradient>
<linearGradient id="cfair" x1="0" y1="0" x2="0" y2="1"><stop offset="0%" stop-color="#9FDD6E"/><stop offset="50%" stop-color="#5FBE52"/><stop offset="100%" stop-color="#2E8F3E"/></linearGradient>
</defs>
<rect x="0" y="0" width="1600" height="400" fill="url(#csky)"/>
<circle cx="1280" cy="110" r="150" fill="url(#csun)"/>
<circle cx="1280" cy="110" r="54" fill="#FFF8E6"/>
<path d="M0 155 Q220 130 440 145 T900 140 T1280 148 T1600 138 L1600 198 L0 198 Z" fill="url(#cseaF)"/>
<path d="M0 192 Q280 168 560 184 T1120 176 T1600 182 L1600 232 L0 232 Z" fill="url(#cseaM)"/>
<path d="M0 222 Q330 198 660 218 T1320 208 T1600 218 L1600 270 L0 270 Z" fill="url(#cseaN)"/>
<path d="M0 252 Q360 218 720 250 T1380 234 T1600 244 L1600 310 L0 310 Z" fill="url(#cridgeF)"/>
<path d="M0 288 Q380 248 760 286 T1460 270 T1600 280 L1600 400 L0 400 Z" fill="url(#cridgeM)"/>
<g>
<path d="M170 330 Q166 270 178 220 Q183 200 196 212 Q202 224 192 240 Q185 252 189 274 Q193 296 184 330 Z" fill="#1B4A2C"/>
<ellipse cx="190" cy="208" rx="48" ry="55" fill="#1F5733"/>
<ellipse cx="158" cy="180" rx="28" ry="36" fill="#2C7044"/>
<ellipse cx="226" cy="196" rx="22" ry="28" fill="#256239"/>
</g>
<g opacity="0.95">
<path d="M1450 340 Q1446 290 1455 248 Q1459 234 1469 243 Q1474 251 1466 262 Q1460 271 1463 288 Q1466 305 1459 340 Z" fill="#173F26"/>
<ellipse cx="1466" cy="240" rx="38" ry="44" fill="#1D4F2E"/>
<ellipse cx="1430" cy="214" rx="22" ry="28" fill="#2A6A3E"/>
</g>
<path d="M0 300 Q360 260 720 296 T1380 278 T1600 290 L1600 400 L0 400 Z" fill="url(#cfair)"/>
<circle cx="870" cy="330" r="6" fill="#FFFBF0"/>
<rect x="868" y="312" width="2" height="18" fill="#6B5638"/>
<path d="M870 312 L890 318 L870 324 Z" fill="#E8466B"/>
<g opacity="0.85" stroke="#3E9E2E" stroke-width="1.2" fill="none">
<path d="M100 350 Q108 340 116 350"/><path d="M250 365 Q258 355 266 365"/><path d="M1300 358 Q1308 348 1316 358"/><path d="M1500 372 Q1508 362 1516 372"/>
</g>
</svg>
