<svg width="1600" height="400" viewBox="0 0 1600 400" xmlns="http://www.w3.org/2000/svg">
<title>Vivid aerial illustration of a coastline with cliffs, a lighthouse, sailboats, and birds</title>
<defs>
<linearGradient id="dsky2" x1="0" y1="0" x2="0" y2="1"><stop offset="0%" stop-color="#D8F2EC"/><stop offset="100%" stop-color="#A8E0D4"/></linearGradient>
<linearGradient id="docean2" x1="0" y1="0" x2="1" y2="1"><stop offset="0%" stop-color="#1FA8B8"/><stop offset="50%" stop-color="#1B8AA8"/><stop offset="100%" stop-color="#125C7E"/></linearGradient>
<radialGradient id="dshallow2" cx="40%" cy="40%" r="60%"><stop offset="0%" stop-color="#7FF0DC" stop-opacity="0.95"/><stop offset="100%" stop-color="#7FF0DC" stop-opacity="0"/></radialGradient>
<linearGradient id="dcliff2" x1="0" y1="0" x2="0" y2="1"><stop offset="0%" stop-color="#E0BC84"/><stop offset="55%" stop-color="#B8965C"/><stop offset="100%" stop-color="#8A6840"/></linearGradient>
<linearGradient id="dgrass2" x1="0" y1="0" x2="0" y2="1"><stop offset="0%" stop-color="#AFE078"/><stop offset="100%" stop-color="#7AB850"/></linearGradient>
</defs>
<rect x="0" y="0" width="1600" height="400" fill="url(#dsky2)"/>
<rect x="0" y="0" width="1600" height="400" fill="url(#docean2)"/>
<ellipse cx="650" cy="180" rx="500" ry="170" fill="url(#dshallow2)"/>
<g opacity="0.6" stroke="#D0FAF0" stroke-width="1.6" fill="none">
<path d="M80 80 Q120 75 160 80"/><path d="M340 110 Q380 105 420 110"/><path d="M980 60 Q1020 55 1060 60"/><path d="M1200 130 Q1240 125 1280 130"/><path d="M200 250 Q240 245 280 250"/><path d="M1050 290 Q1090 285 1130 290"/><path d="M820 320 Q860 315 900 320"/>
</g>
<path d="M0 0 L0 280 Q90 230 180 260 Q250 280 290 235 Q330 195 260 155 Q210 125 250 90 Q285 62 235 30 Q205 12 220 0 Z" fill="url(#dcliff2)"/>
<path d="M0 0 L0 280 Q90 230 180 260 Q250 280 290 235 Q330 195 260 155 Q210 125 250 90 Q285 62 235 30 Q205 12 220 0" fill="none" stroke="#8A6840" stroke-width="3" opacity="0.4"/>
<g opacity="0.6" stroke="#9C7C50" stroke-width="1.5" fill="none">
<path d="M30 80 Q60 100 45 130"/><path d="M90 170 Q125 195 100 225"/><path d="M150 40 Q180 60 160 90"/>
</g>
<path d="M0 0 L0 75 Q60 60 90 80 Q120 100 75 120 Q40 132 50 160 L0 160 Z" fill="url(#dgrass2)" opacity="0.95"/>
<g transform="translate(120,75)">
<rect x="-12" y="-60" width="24" height="60" fill="#F4ECDE"/>
<rect x="-14" y="-66" width="28" height="8" fill="#C9596B"/>
<rect x="-3" y="-72" width="6" height="8" fill="#C9596B"/>
<rect x="-9" y="-50" width="18" height="10" fill="#2E5C9C" opacity="0.7"/>
<rect x="-15" y="0" width="30" height="6" fill="#8A6840"/>
</g>
<g opacity="0.95">
<path d="M75 145 Q73 110 80 82 Q83 70 90 78 Q94 87 88 98 Q84 108 87 122 Q88 134 83 145 Z" fill="#2C5530"/>
<ellipse cx="86" cy="76" rx="26" ry="32" fill="#33652F"/>
<ellipse cx="68" cy="56" rx="15" ry="20" fill="#3D7639"/>
</g>
<g opacity="0.9">
<path d="M230 270 Q228 245 233 228 Q235 220 240 226 Q242 232 239 238 Q237 244 238 254 Q239 263 235 270 Z" fill="#2C5530"/>
<ellipse cx="236" cy="224" rx="16" ry="20" fill="#33652F"/>
</g>
<path d="M1600 400 L1600 130 Q1500 158 1460 210 Q1420 262 1490 305 Q1530 328 1580 318 L1600 312 Z" fill="url(#dcliff2)" opacity="0.9"/>
<g opacity="0.9">
<path d="M1530 295 Q1528 265 1534 245 Q1536 237 1542 243 Q1545 250 1541 257 Q1538 263 1540 275 Q1541 285 1536 295 Z" fill="#2C5530"/>
<ellipse cx="1538" cy="241" rx="20" ry="25" fill="#33652F"/>
</g>
<g transform="translate(620,210)">
<path d="M0 0 L0 -50 L34 -10 Z" fill="#F4ECDE"/>
<path d="M-3 0 L-3 -38 L-26 -8 Z" fill="#E0D6BC"/>
<path d="M-18 0 Q0 6 18 0 L14 8 L-14 8 Z" fill="#C97A52"/>
</g>
<g transform="translate(900,250) scale(0.8)">
<path d="M0 0 L0 -50 L34 -10 Z" fill="#F4ECDE"/>
<path d="M-3 0 L-3 -38 L-26 -8 Z" fill="#E0D6BC"/>
<path d="M-18 0 Q0 6 18 0 L14 8 L-14 8 Z" fill="#5C9C7C"/>
</g>
<g transform="translate(450,160) scale(0.55)">
<path d="M0 0 L0 -50 L34 -10 Z" fill="#F4ECDE" opacity="0.85"/>
<path d="M-18 0 Q0 6 18 0 L14 8 L-14 8 Z" fill="#D8546C" opacity="0.85"/>
</g>
<g opacity="0.9" fill="#2C2C3A">
<path d="M520 60 Q530 50 540 60 Q530 56 520 60 Z"/>
<path d="M560 80 Q570 70 580 80 Q570 76 560 80 Z"/>
<path d="M610 55 Q620 45 630 55 Q620 51 610 55 Z"/>
<path d="M1150 90 Q1160 80 1170 90 Q1160 86 1150 90 Z"/>
<path d="M1100 70 Q1110 60 1120 70 Q1110 66 1100 70 Z"/>
</g>
<g opacity="0.95">
<ellipse cx="740" cy="195" rx="7" ry="3.5" fill="#FFFFFF" opacity="0.9"/>
<path d="M730 195 Q735 189 740 195" fill="none" stroke="#FFFFFF" stroke-width="2" opacity="0.75"/>
<ellipse cx="1020" cy="270" rx="6" ry="3" fill="#FFFFFF" opacity="0.8"/>
</g>
</svg>
