<svg width="1600" height="400" viewBox="0 0 1600 400" xmlns="http://www.w3.org/2000/svg">
<title>Illustration of a fairway at dawn with bold FAQ lettering</title>
<defs>
<linearGradient id="fsky2" x1="0" y1="0" x2="0" y2="1"><stop offset="0%" stop-color="#7FB8DC"/><stop offset="40%" stop-color="#BCD8DC"/><stop offset="75%" stop-color="#F2D9A8"/><stop offset="100%" stop-color="#EEAE7C"/></linearGradient>
<radialGradient id="fsun2" cx="50%" cy="50%" r="50%"><stop offset="0%" stop-color="#FFF6DE" stop-opacity="1"/><stop offset="100%" stop-color="#FFD79A" stop-opacity="0"/></radialGradient>
<linearGradient id="fridge2" x1="0" y1="0" x2="0" y2="1"><stop offset="0%" stop-color="#7FA86C"/><stop offset="100%" stop-color="#578048"/></linearGradient>
<linearGradient id="ffair2" x1="0" y1="0" x2="0" y2="1"><stop offset="0%" stop-color="#9FCC78"/><stop offset="100%" stop-color="#6FA048"/></linearGradient>
</defs>
<rect x="0" y="0" width="1600" height="400" fill="url(#fsky2)"/>
<circle cx="1280" cy="110" r="170" fill="url(#fsun2)"/>
<circle cx="1280" cy="110" r="50" fill="#FFF8E6"/>
<path d="M0 200 Q280 160 560 195 T1120 180 T1600 190 L1600 250 L0 250 Z" fill="url(#fridge2)" opacity="0.85"/>
<g opacity="0.7">
<path d="M150 250 Q147 215 154 188 Q157 178 163 184 Q166 191 161 200 Q158 208 160 222 Q161 235 156 250 Z" fill="#33502B"/>
<ellipse cx="159" cy="182" rx="28" ry="34" fill="#3D5F33"/>
</g>
<g opacity="0.6">
<path d="M1380 260 Q1378 228 1384 204 Q1386 195 1392 200 Q1394 207 1391 214 Q1388 221 1390 232 Q1391 243 1386 260 Z" fill="#33502B"/>
<ellipse cx="1389" cy="198" rx="22" ry="27" fill="#3D5F33"/>
</g>
<path d="M0 235 Q300 190 600 230 T1200 210 T1600 222 L1600 400 L0 400 Z" fill="url(#ffair2)"/>
<circle cx="800" cy="280" r="6" fill="#FFFBF0"/>
<rect x="798" y="262" width="2" height="18" fill="#6B5638"/>
<path d="M800 262 L818 267 L800 272 Z" fill="#D8546C"/>
<g opacity="0.85" stroke="#3E9E2E" stroke-width="1.5" fill="none">
<path d="M120 330 Q128 320 136 330"/><path d="M260 350 Q268 340 276 350"/><path d="M1320 340 Q1328 330 1336 340"/><path d="M1450 360 Q1458 350 1466 360"/>
</g>
<g transform="translate(800,205)">
<text x="0" y="0" text-anchor="middle" font-family="Georgia, serif" font-size="150" font-weight="700" fill="#FFFFFF" stroke="#1C5E38" stroke-width="5" paint-order="stroke">FAQ</text>
</g>
<g transform="translate(560,150)">
<circle cx="0" cy="0" r="34" fill="#FFFFFF" opacity="0.92"/>
<text x="0" y="14" text-anchor="middle" font-family="Georgia, serif" font-size="42" font-weight="700" fill="#2C6E8E">?</text>
</g>
<g transform="translate(1080,130) scale(0.7)">
<circle cx="0" cy="0" r="34" fill="#FFFFFF" opacity="0.85"/>
<text x="0" y="14" text-anchor="middle" font-family="Georgia, serif" font-size="42" font-weight="700" fill="#D8546C">?</text>
</g>
</svg>
