<svg width="1600" height="400" viewBox="0 0 1600 400" xmlns="http://www.w3.org/2000/svg">
<title>Fun travel-themed illustration of golfers on a fairway with a plane flying overhead</title>
<defs>
<linearGradient id="isky2" x1="0" y1="0" x2="0" y2="1"><stop offset="0%" stop-color="#4FA8E0"/><stop offset="45%" stop-color="#7FC4E8"/><stop offset="75%" stop-color="#BCE4DC"/><stop offset="100%" stop-color="#F2DDA8"/></linearGradient>
<radialGradient id="isun2" cx="50%" cy="50%" r="50%"><stop offset="0%" stop-color="#FFF4DC" stop-opacity="1"/><stop offset="100%" stop-color="#FFD79A" stop-opacity="0"/></radialGradient>
<linearGradient id="ihillFar2" x1="0" y1="0" x2="0" y2="1"><stop offset="0%" stop-color="#9CC87C"/><stop offset="100%" stop-color="#6FAA4E"/></linearGradient>
<linearGradient id="ihillNear2" x1="0" y1="0" x2="0" y2="1"><stop offset="0%" stop-color="#7FCC54"/><stop offset="100%" stop-color="#4F9C38"/></linearGradient>
</defs>
<rect x="0" y="0" width="1600" height="400" fill="url(#isky2)"/>
<circle cx="220" cy="100" r="130" fill="url(#isun2)"/>
<circle cx="220" cy="100" r="46" fill="#FFF7E2"/>
<g opacity="0.85">
<ellipse cx="700" cy="70" rx="60" ry="14" fill="#FFFFFF"/><ellipse cx="755" cy="62" rx="40" ry="12" fill="#FFFFFF"/><ellipse cx="650" cy="62" rx="38" ry="11" fill="#FFFFFF"/>
<ellipse cx="1200" cy="50" rx="55" ry="13" fill="#FFFFFF" opacity="0.9"/><ellipse cx="1250" cy="44" rx="36" ry="10" fill="#FFFFFF" opacity="0.9"/>
<ellipse cx="380" cy="40" rx="50" ry="11" fill="#FFFFFF" opacity="0.85"/>
</g>
<g transform="translate(1080,90) rotate(8)">
<path d="M0 0 L120 8 L140 14 L120 20 L0 14 Q-14 14 -14 7 Q-14 0 0 0 Z" fill="#E8EEF2"/>
<path d="M30 4 L55 -26 L72 -24 L58 6 Z" fill="#E8EEF2"/>
<path d="M30 12 L55 38 L72 36 L58 8 Z" fill="#E8EEF2"/>
<path d="M118 9 L150 0 L150 18 L118 16 Z" fill="#C73B4A"/>
<circle cx="20" cy="9" r="5" fill="#BFD0DC"/>
<rect x="-13" y="6" width="13" height="5" rx="2" fill="#BFD0DC"/>
</g>
<path d="M930 96 Q990 92 1075 90" stroke="#FFFFFF" stroke-width="5" stroke-linecap="round" opacity="0.75" fill="none"/>
<path d="M880 100 Q930 96 990 93" stroke="#FFFFFF" stroke-width="4" stroke-linecap="round" opacity="0.5" fill="none"/>
<path d="M0 220 Q260 175 520 215 T1040 200 T1600 195 L1600 280 L0 280 Z" fill="url(#ihillFar2)"/>
<path d="M0 218 Q260 173 520 213 T1040 198 T1600 193" fill="none" stroke="#B8E090" stroke-width="3" opacity="0.5"/>
<g opacity="0.9">
<path d="M120 280 Q117 220 126 175 Q129 160 137 168 Q142 178 136 190 Q131 200 134 220 Q137 240 131 280 Z" fill="#2C7044"/>
<ellipse cx="133" cy="166" rx="40" ry="46" fill="#33824F"/>
<ellipse cx="110" cy="138" rx="24" ry="30" fill="#3D9A5C"/>
<ellipse cx="155" cy="150" rx="18" ry="24" fill="#368C53"/>
</g>
<g opacity="0.85">
<path d="M1430 290 Q1427 235 1434 195 Q1437 182 1444 189 Q1448 197 1443 207 Q1440 215 1442 230 Q1444 245 1439 290 Z" fill="#2C7044"/>
<ellipse cx="1440" cy="187" rx="32" ry="38" fill="#33824F"/>
</g>
<path d="M0 260 Q300 200 620 250 T1180 230 T1600 240 L1600 400 L0 400 Z" fill="url(#ihillNear2)"/>
<path d="M0 258 Q300 198 620 248 T1180 228 T1600 238" fill="none" stroke="#9FE070" stroke-width="3" opacity="0.55"/>
<path d="M300 400 Q420 320 560 312 Q680 306 800 330 Q900 350 980 400 Z" fill="#A8E878" opacity="0.6"/>
<circle cx="700" cy="340" r="6" fill="#FFFFFF"/>
<rect x="699" y="318" width="2" height="22" fill="#7A6648"/>
<path d="M701 318 L718 323 L701 328 Z" fill="#E8466B"/>
<g transform="translate(560,355)">
<ellipse cx="0" cy="38" rx="16" ry="4" fill="#1C5E38" opacity="0.3"/>
<circle cx="0" cy="0" r="11" fill="#F4C9A0"/>
<rect x="-9" y="9" width="18" height="22" rx="6" fill="#3A6BA8"/>
<rect x="-17" y="13" width="9" height="20" rx="4" fill="#3A6BA8" transform="rotate(-25 -17 13)"/>
<rect x="8" y="13" width="9" height="20" rx="4" fill="#F4C9A0" transform="rotate(70 8 13)"/>
<rect x="-7" y="29" width="6" height="20" rx="3" fill="#2C2C3A"/>
<rect x="2" y="29" width="6" height="20" rx="3" fill="#2C2C3A"/>
<rect x="-3" y="-7" width="10" height="6" rx="3" fill="#2C2C3A"/>
<line x1="18" y1="20" x2="32" y2="50" stroke="#5C4A38" stroke-width="2"/>
</g>
<g transform="translate(820,365)">
<ellipse cx="0" cy="32" rx="14" ry="4" fill="#1C5E38" opacity="0.3"/>
<circle cx="0" cy="0" r="10" fill="#E0A878"/>
<rect x="-8" y="8" width="16" height="18" rx="5" fill="#D85C5C"/>
<rect x="-15" y="11" width="8" height="16" rx="4" fill="#D85C5C" transform="rotate(-15 -15 11)"/>
<rect x="7" y="11" width="8" height="16" rx="4" fill="#D85C5C" transform="rotate(40 7 11)"/>
<rect x="-6" y="24" width="5" height="16" rx="2.5" fill="#2C2C3A"/>
<rect x="1" y="24" width="5" height="16" rx="2.5" fill="#2C2C3A"/>
</g>
<g opacity="0.7" stroke="#3E9E2E" stroke-width="1.5" fill="none">
<path d="M80 370 Q86 362 92 370"/><path d="M200 380 Q206 372 212 380"/><path d="M1300 372 Q1306 364 1312 372"/><path d="M1450 385 Q1456 377 1462 385"/>
</g>
</svg>
