<svg width="680" height="320" viewBox="0 0 680 320" xmlns="http://www.w3.org/2000/svg">
<title>Painterly illustration of a coastal road winding through golden hills at sunrise</title>
<defs>
<linearGradient id="isky" x1="0" y1="0" x2="0" y2="1"><stop offset="0%" stop-color="#7FB8DC"/><stop offset="35%" stop-color="#A8D2DE"/><stop offset="65%" stop-color="#F2D9B0"/><stop offset="100%" stop-color="#F2B98E"/></linearGradient>
<radialGradient id="isun" cx="50%" cy="50%" r="50%"><stop offset="0%" stop-color="#FFF4DC" stop-opacity="1"/><stop offset="100%" stop-color="#FFD79A" stop-opacity="0"/></radialGradient>
<linearGradient id="ihillFar" x1="0" y1="0" x2="0" y2="1"><stop offset="0%" stop-color="#9CB87C"/><stop offset="100%" stop-color="#7C9C5E"/></linearGradient>
<linearGradient id="ihillMid" x1="0" y1="0" x2="0" y2="1"><stop offset="0%" stop-color="#7CA258"/><stop offset="100%" stop-color="#588038"/></linearGradient>
<linearGradient id="ihillNear" x1="0" y1="0" x2="0" y2="1"><stop offset="0%" stop-color="#D9C27E"/><stop offset="100%" stop-color="#B89A52"/></linearGradient>
<linearGradient id="iroad" x1="0" y1="0" x2="0" y2="1"><stop offset="0%" stop-color="#776153"/><stop offset="100%" stop-color="#4A3C32"/></linearGradient>
<filter id="igrain"><feTurbulence type="fractalNoise" baseFrequency="0.85" numOctaves="2" stitchTiles="stitch" result="noise"/><feColorMatrix in="noise" type="matrix" values="0 0 0 0 0  0 0 0 0 0  0 0 0 0 0  0 0 0 0.045 0"/></filter>
</defs>
<rect x="0" y="0" width="680" height="320" fill="url(#isky)"/>
<circle cx="100" cy="90" r="110" fill="url(#isun)"/>
<circle cx="100" cy="90" r="38" fill="#FFF7E2"/>
<g opacity="0.55"><ellipse cx="450" cy="55" rx="80" ry="16" fill="#FFFFFF" opacity="0.5"/><ellipse cx="540" cy="40" rx="60" ry="12" fill="#FFFFFF" opacity="0.4"/><ellipse cx="580" cy="90" rx="70" ry="14" fill="#FFFFFF" opacity="0.45"/></g>
<path d="M0 150 Q170 110 340 145 T680 130 L680 200 L0 200 Z" fill="url(#ihillFar)"/>
<path d="M0 148 Q170 108 340 143 T680 128" fill="none" stroke="#B8CE96" stroke-width="2" opacity="0.5"/>
<path d="M0 185 Q200 140 400 180 T680 165 L680 245 L0 245 Z" fill="url(#ihillMid)"/>
<path d="M0 183 Q200 138 400 178 T680 163" fill="none" stroke="#9AC470" stroke-width="2.5" opacity="0.45"/>
<g opacity="0.85"><path d="M95 245 Q93 210 99 182 Q101 172 107 178 Q110 184 106 192 Q103 200 105 213 Q107 225 103 245 Z" fill="#33502B"/><ellipse cx="103" cy="174" rx="28" ry="32" fill="#3A5A30"/><ellipse cx="90" cy="158" rx="16" ry="20" fill="#456B3A"/></g>
<g opacity="0.8"><path d="M580 250 Q578 222 583 200 Q585 192 590 197 Q592 202 589 208 Q587 213 588 223 Q590 233 587 250 Z" fill="#33502B"/><ellipse cx="586" cy="195" rx="20" ry="23" fill="#3A5A30"/></g>
<path d="M0 225 Q220 175 440 220 T680 205 L680 320 L0 320 Z" fill="url(#ihillNear)"/>
<path d="M0 223 Q220 173 440 218 T680 203" fill="none" stroke="#E8D49C" stroke-width="2" opacity="0.5"/>
<g opacity="0.6" fill="#C2A862"><ellipse cx="60" cy="265" rx="3" ry="8"/><ellipse cx="200" cy="255" rx="3" ry="9"/><ellipse cx="350" cy="270" rx="3" ry="8"/><ellipse cx="520" cy="258" rx="3" ry="9"/><ellipse cx="620" cy="268" rx="3" ry="8"/></g>
<path d="M250 320 Q260 270 230 230 Q210 200 240 170 Q265 145 250 110 L300 110 Q280 145 310 170 Q345 200 320 230 Q295 270 320 320 Z" fill="url(#iroad)"/>
<path d="M270 320 Q278 270 252 232 Q235 204 260 175 Q280 152 268 120" fill="none" stroke="#F2E4C8" stroke-width="2.5" stroke-dasharray="10 10" opacity="0.7"/>
<g transform="translate(258,140) rotate(8)"><rect x="-14" y="-7" width="28" height="14" rx="4" fill="#C7544A"/><rect x="-12" y="-9" width="24" height="6" rx="2" fill="#E8E2D2"/><circle cx="-8" cy="6" r="4" fill="#2A2420"/><circle cx="8" cy="6" r="4" fill="#2A2420"/></g>
<rect x="0" y="0" width="680" height="320" filter="url(#igrain)"/>
</svg>
