<svg width="680" height="320" viewBox="0 0 680 320" xmlns="http://www.w3.org/2000/svg">
<title>Painterly illustration of golden clubhouse lights at dusk over fairways</title>
<defs>
<linearGradient id="psky" x1="0" y1="0" x2="0" y2="1"><stop offset="0%" stop-color="#2E4159"/><stop offset="40%" stop-color="#5C6E7E"/><stop offset="70%" stop-color="#C9926B"/><stop offset="100%" stop-color="#E8AE6E"/></linearGradient>
<radialGradient id="pglow" cx="50%" cy="50%" r="50%"><stop offset="0%" stop-color="#FFE4A8" stop-opacity="1"/><stop offset="100%" stop-color="#FFB870" stop-opacity="0"/></radialGradient>
<linearGradient id="pridge" x1="0" y1="0" x2="0" y2="1"><stop offset="0%" stop-color="#4A6E55"/><stop offset="100%" stop-color="#2C4A33"/></linearGradient>
<linearGradient id="pfair" x1="0" y1="0" x2="0" y2="1"><stop offset="0%" stop-color="#5E8C4A"/><stop offset="100%" stop-color="#3A5E2E"/></linearGradient>
<radialGradient id="pwarm" cx="50%" cy="85%" r="65%"><stop offset="0%" stop-color="#FFC889" stop-opacity="0.4"/><stop offset="100%" stop-color="#FFC889" stop-opacity="0"/></radialGradient>
<filter id="pgrain"><feTurbulence type="fractalNoise" baseFrequency="0.85" numOctaves="2" stitchTiles="stitch" result="noise"/><feColorMatrix in="noise" type="matrix" values="0 0 0 0 0  0 0 0 0 0  0 0 0 0 0  0 0 0 0.05 0"/></filter>
</defs>
<rect x="0" y="0" width="680" height="320" fill="url(#psky)"/>
<circle cx="180" cy="95" r="100" fill="url(#pglow)"/>
<circle cx="180" cy="95" r="34" fill="#FFF1D0"/>
<g opacity="0.5"><circle cx="540" cy="40" r="1.5" fill="#FFF6DC"/><circle cx="580" cy="60" r="1.2" fill="#FFF6DC"/><circle cx="480" cy="30" r="1.3" fill="#FFF6DC"/><circle cx="610" cy="35" r="1.4" fill="#FFF6DC"/></g>
<path d="M0 165 Q170 130 340 158 T680 142 L680 220 L0 220 Z" fill="url(#pridge)"/>
<path d="M0 163 Q170 128 340 156 T680 140" fill="none" stroke="#6E9A6E" stroke-width="2" opacity="0.45"/>
<path d="M0 205 Q200 175 400 200 T680 185 L680 320 L0 320 Z" fill="url(#pfair)"/>
<path d="M0 203 Q200 173 400 198 T680 183" fill="none" stroke="#7FAE5E" stroke-width="2" opacity="0.4"/>
<g opacity="0.9"><path d="M580 280 Q578 245 583 218 Q585 209 591 215 Q594 221 590 229 Q587 236 588 248 Q590 260 586 280 Z" fill="#1E3A24"/><ellipse cx="586" cy="212" rx="26" ry="30" fill="#244429"/></g>
<g opacity="0.85"><path d="M90 300 Q88 270 93 248 Q95 240 100 245 Q102 250 99 256 Q97 262 98 272 Q99 282 96 300 Z" fill="#1E3A24"/><ellipse cx="96" cy="242" rx="19" ry="22" fill="#244429"/></g>
<g transform="translate(330,160)">
<path d="M-90 90 L-90 30 L0 -25 L90 30 L90 90 Z" fill="#3A2E28"/>
<path d="M-100 35 L0 -35 L100 35 L88 35 L0 -22 L-88 35 Z" fill="#241B18"/>
<rect x="-70" y="40" width="26" height="50" fill="#5C4534"/><rect x="-64" y="46" width="14" height="16" fill="#FFD68A" opacity="0.85"/>
<rect x="-30" y="40" width="22" height="50" fill="#5C4534"/><rect x="-25" y="46" width="13" height="15" fill="#3A2E28"/>
<rect x="8" y="40" width="22" height="50" fill="#5C4534"/><rect x="13" y="46" width="13" height="15" fill="#FFD68A" opacity="0.8"/>
<rect x="44" y="40" width="26" height="50" fill="#5C4534"/><rect x="50" y="46" width="14" height="16" fill="#FFD68A" opacity="0.7"/>
<rect x="-8" y="60" width="16" height="30" fill="#2A201C"/>
<circle cx="-8" cy="-25" r="4" fill="#FFE4A0"/><circle cx="-8" cy="-25" r="10" fill="url(#pglow)" opacity="0.6"/>
</g>
<g opacity="0.95"><circle cx="220" cy="245" r="5" fill="#FFE4A0"/><circle cx="220" cy="245" r="13" fill="url(#pglow)" opacity="0.5"/><rect x="217" y="245" width="6" height="40" fill="#3A2A1E"/><circle cx="450" cy="240" r="5" fill="#FFE4A0"/><circle cx="450" cy="240" r="13" fill="url(#pglow)" opacity="0.5"/><rect x="447" y="240" width="6" height="42" fill="#3A2A1E"/></g>
<rect x="0" y="0" width="680" height="320" fill="url(#pwarm)"/>
<rect x="0" y="0" width="680" height="320" filter="url(#pgrain)"/>
</svg>
